<?xml version="1.0" encoding="UTF-8" standalone="no"?>
<svg width="198px" height="132px" viewBox="0 0 198 132" version="1.1" xmlns="http://www.w3.org/2000/svg" xmlns:xlink="http://www.w3.org/1999/xlink" xmlns:sketch="http://www.bohemiancoding.com/sketch/ns">
    <!-- Generator: Sketch 3.3.1 (12002) - http://www.bohemiancoding.com/sketch -->
    <title>social</title>
    <desc>Created with Sketch.</desc>
    <defs></defs>
    <g id="Page" stroke="none" stroke-width="1" fill="none" fill-rule="evenodd" sketch:type="MSPage">
        <g id="social" sketch:type="MSArtboardGroup">
            <g id="Hover" sketch:type="MSLayerGroup" transform="translate(25.000000, 82.000000)" fill="#8CD0C6">
                <g id="instagram3" transform="translate(126.150215, 4.231343)" sketch:type="MSShapeGroup">
                    <path d="M26.7105966,1.11563433 C26.0143519,0.433701493 25.1797425,0.0928432836 24.2076524,0.0928432836 L3.64235408,0.0928432836 C2.66982189,0.0928432836 1.83565451,0.43391791 1.13918884,1.11563433 C0.442723176,1.79735075 0.0946008584,2.61432836 0.0946008584,3.56635075 L0.0946008584,23.702306 C0.0946008584,24.6543284 0.442723176,25.471306 1.13918884,26.1530224 C1.83565451,26.8349552 2.67004292,27.1760299 3.64235408,27.1760299 L24.2074313,27.1760299 C25.1795215,27.1760299 26.0141309,26.8349552 26.7103755,26.1530224 C27.4068412,25.471306 27.7547425,24.6543284 27.7547425,23.702306 L27.7547425,3.56635075 C27.7547425,2.61411194 27.4068412,1.79756716 26.7105966,1.11563433 L26.7105966,1.11563433 Z M10.0263648,9.85220896 C11.1127275,8.82379104 12.4183519,8.30936567 13.9430172,8.30936567 C15.479618,8.30936567 16.7912103,8.82379104 17.877794,9.85220896 C18.9641567,10.8808433 19.5074485,12.1239478 19.5074485,13.5815224 C19.5074485,15.0388806 18.9641567,16.2822015 17.877794,17.310403 C16.7912103,18.3390373 15.4798391,18.8534627 13.9430172,18.8534627 C12.4183519,18.8534627 11.1129485,18.3388209 10.0263648,17.310403 C8.93978112,16.2819851 8.39648927,15.0388806 8.39648927,13.5815224 C8.39648927,12.1239478 8.93978112,10.8808433 10.0263648,9.85220896 L10.0263648,9.85220896 Z M24.6218627,22.9796866 C24.6218627,23.2850522 24.5135579,23.5406418 24.2976116,23.7464552 C24.0812232,23.9522687 23.8232811,24.0550672 23.5229013,24.0550672 L4.27273176,24.0550672 C3.96063734,24.0550672 3.69937983,23.9522687 3.48940129,23.7464552 C3.27920172,23.5410746 3.17421245,23.2850522 3.17421245,22.9796866 L3.17421245,11.5536866 L5.71318455,11.5536866 C5.47314592,12.2942687 5.35312661,13.0642836 5.35312661,13.8635149 C5.35312661,16.1207537 6.19348283,18.0455746 7.87419528,19.6384104 C9.55512876,21.2310299 11.5779957,22.0276642 13.9430172,22.0276642 C15.5037103,22.0276642 16.9443841,21.663 18.2652597,20.9343209 C19.5859142,20.205209 20.6298391,19.215097 21.3985815,17.9631194 C22.167103,16.7111418 22.5512532,15.3444627 22.5512532,13.8635149 C22.5512532,13.0642836 22.4307918,12.2944851 22.1907532,11.5536866 L24.6220837,11.5536866 L24.6220837,22.9796866 L24.6218627,22.9796866 Z M24.6218627,7.23376866 C24.6218627,7.57462687 24.5018433,7.8626791 24.2613627,8.09770896 C24.021324,8.33295522 23.7273541,8.45047015 23.3790107,8.45047015 L20.2456888,8.45047015 C19.8977876,8.45047015 19.6033755,8.33295522 19.3633369,8.09770896 C19.1232983,7.8626791 19.003279,7.57462687 19.003279,7.23376866 L19.003279,4.3246791 C19.003279,3.99550746 19.1232983,3.71048507 19.3633369,3.46939552 C19.6033755,3.22852239 19.8977876,3.10797761 20.2456888,3.10797761 L23.3790107,3.10797761 C23.7273541,3.10797761 24.021324,3.22852239 24.2613627,3.46939552 C24.5018433,3.71048507 24.6218627,3.99550746 24.6218627,4.3246791 L24.6218627,7.23376866 L24.6218627,7.23376866 Z" id="Shape"></path>
                </g>
                <g id="twitter16" transform="translate(59.281116, 4.746269)" sketch:type="MSShapeGroup">
                    <path d="M29.3362725,3.64917164 C28.2198498,4.11944776 27.102985,4.41312687 25.9870043,4.53107463 C27.2475386,3.79049254 28.1000515,2.74432836 28.5443219,1.39258209 C27.3914292,2.06239552 26.1609549,2.52076866 24.8524571,2.76770149 C23.6997854,1.56874627 22.2834249,0.969052239 20.6024914,0.969052239 C18.9938348,0.969052239 17.6223433,1.5243806 16.4875751,2.63525373 C15.3530279,3.74612687 14.7858648,5.089 14.7858648,6.66408955 C14.7858648,7.08718657 14.8338283,7.52218657 14.9299764,7.96887313 C12.5527983,7.85135821 10.3228262,7.26659701 8.23983906,6.21458955 C6.15685193,5.16236567 4.38905365,3.76062687 2.93644421,2.00915672 C2.4081824,2.89062687 2.1440515,3.84870896 2.1440515,4.88318657 C2.1440515,5.85879851 2.37812232,6.76407463 2.84648498,7.59858209 C3.31462661,8.43308955 3.94500429,9.10896269 4.737397,9.62620149 C3.8008927,9.59092537 2.92450858,9.34983582 2.10824464,8.90314925 L2.10824464,8.97370149 C2.10824464,10.3490373 2.5494206,11.5566493 3.43177253,12.5971866 C4.31412446,13.6377239 5.42767382,14.2928209 6.77219957,14.5631269 C6.26803004,14.6923284 5.75767167,14.7570373 5.24156652,14.7570373 C4.90537983,14.7570373 4.53913305,14.7276045 4.14304721,14.6691716 C4.5152618,15.8092612 5.19957082,16.7465672 6.19597425,17.481306 C7.19237768,18.2162612 8.32095708,18.5949925 9.58149142,18.6187985 C7.46866524,20.2406343 5.06164807,21.0517687 2.36043991,21.0517687 C1.84411373,21.0517687 1.3759721,21.0286119 0.955793991,20.9814328 C3.65700215,22.6857239 6.63427682,23.5377612 9.88783906,23.5377612 C11.9527017,23.5377612 13.8915773,23.2176791 15.7040236,22.5770821 C17.517133,21.9364851 19.0656695,21.0783881 20.3502961,20.0025746 C21.6347017,18.927194 22.7422833,17.6899328 23.6725987,16.2910075 C24.6029142,14.8922985 25.2960644,13.4319104 25.7524914,11.9096269 C26.2086974,10.3871269 26.4368004,8.86224627 26.4368004,7.33390299 C26.4368004,7.00473134 26.4308326,6.75801493 26.418676,6.5933209 C27.559412,5.7826194 28.5319442,4.80094776 29.3362725,3.64917164 L29.3362725,3.64917164 Z" id="Shape"></path>
                </g>
                <g id="facebook25" transform="translate(0.000000, 0.500000)" sketch:type="MSShapeGroup">
                    <path d="M10.1391502,10.492306 L10.1391502,7.98856716 C10.1391502,7.61264925 10.1568326,7.32156716 10.1928605,7.11597015 C10.2286674,6.9099403 10.3100064,6.70737313 10.4362146,6.50740299 C10.5622017,6.30764925 10.7664335,6.16957463 11.0484678,6.0931791 C11.3307232,6.01656716 11.7060322,5.97847761 12.1743948,5.97847761 L14.7312704,5.97847761 L14.7312704,0.971 L10.6435408,0.971 C8.27807725,0.971 6.57946137,1.52048507 5.54703004,2.61945522 C4.51459871,3.71864179 3.99849356,5.33766418 3.99849356,7.47717164 L3.99849356,10.492306 L0.936785408,10.492306 L0.936785408,15.5 L3.99827253,15.5 L3.99827253,30.029 L10.1391502,30.029 L10.1391502,15.5 L14.2268798,15.5 L14.7670773,10.492306 L10.1391502,10.492306 L10.1391502,10.492306 Z" id="Shape"></path>
                </g>
            </g>
            <g id="Normal" sketch:type="MSLayerGroup" transform="translate(25.000000, 16.000000)" fill="#FFFFFF">
                <g id="instagram3" transform="translate(126.150215, 4.231343)" sketch:type="MSShapeGroup">
                    <path d="M26.7105966,1.11563433 C26.0143519,0.433701493 25.1797425,0.0928432836 24.2076524,0.0928432836 L3.64235408,0.0928432836 C2.66982189,0.0928432836 1.83565451,0.43391791 1.13918884,1.11563433 C0.442723176,1.79735075 0.0946008584,2.61432836 0.0946008584,3.56635075 L0.0946008584,23.702306 C0.0946008584,24.6543284 0.442723176,25.471306 1.13918884,26.1530224 C1.83565451,26.8349552 2.67004292,27.1760299 3.64235408,27.1760299 L24.2074313,27.1760299 C25.1795215,27.1760299 26.0141309,26.8349552 26.7103755,26.1530224 C27.4068412,25.471306 27.7547425,24.6543284 27.7547425,23.702306 L27.7547425,3.56635075 C27.7547425,2.61411194 27.4068412,1.79756716 26.7105966,1.11563433 L26.7105966,1.11563433 Z M10.0263648,9.85220896 C11.1127275,8.82379104 12.4183519,8.30936567 13.9430172,8.30936567 C15.479618,8.30936567 16.7912103,8.82379104 17.877794,9.85220896 C18.9641567,10.8808433 19.5074485,12.1239478 19.5074485,13.5815224 C19.5074485,15.0388806 18.9641567,16.2822015 17.877794,17.310403 C16.7912103,18.3390373 15.4798391,18.8534627 13.9430172,18.8534627 C12.4183519,18.8534627 11.1129485,18.3388209 10.0263648,17.310403 C8.93978112,16.2819851 8.39648927,15.0388806 8.39648927,13.5815224 C8.39648927,12.1239478 8.93978112,10.8808433 10.0263648,9.85220896 L10.0263648,9.85220896 Z M24.6218627,22.9796866 C24.6218627,23.2850522 24.5135579,23.5406418 24.2976116,23.7464552 C24.0812232,23.9522687 23.8232811,24.0550672 23.5229013,24.0550672 L4.27273176,24.0550672 C3.96063734,24.0550672 3.69937983,23.9522687 3.48940129,23.7464552 C3.27920172,23.5410746 3.17421245,23.2850522 3.17421245,22.9796866 L3.17421245,11.5536866 L5.71318455,11.5536866 C5.47314592,12.2942687 5.35312661,13.0642836 5.35312661,13.8635149 C5.35312661,16.1207537 6.19348283,18.0455746 7.87419528,19.6384104 C9.55512876,21.2310299 11.5779957,22.0276642 13.9430172,22.0276642 C15.5037103,22.0276642 16.9443841,21.663 18.2652597,20.9343209 C19.5859142,20.205209 20.6298391,19.215097 21.3985815,17.9631194 C22.167103,16.7111418 22.5512532,15.3444627 22.5512532,13.8635149 C22.5512532,13.0642836 22.4307918,12.2944851 22.1907532,11.5536866 L24.6220837,11.5536866 L24.6220837,22.9796866 L24.6218627,22.9796866 Z M24.6218627,7.23376866 C24.6218627,7.57462687 24.5018433,7.8626791 24.2613627,8.09770896 C24.021324,8.33295522 23.7273541,8.45047015 23.3790107,8.45047015 L20.2456888,8.45047015 C19.8977876,8.45047015 19.6033755,8.33295522 19.3633369,8.09770896 C19.1232983,7.8626791 19.003279,7.57462687 19.003279,7.23376866 L19.003279,4.3246791 C19.003279,3.99550746 19.1232983,3.71048507 19.3633369,3.46939552 C19.6033755,3.22852239 19.8977876,3.10797761 20.2456888,3.10797761 L23.3790107,3.10797761 C23.7273541,3.10797761 24.021324,3.22852239 24.2613627,3.46939552 C24.5018433,3.71048507 24.6218627,3.99550746 24.6218627,4.3246791 L24.6218627,7.23376866 L24.6218627,7.23376866 Z" id="Shape"></path>
                </g>
                <g id="twitter16" transform="translate(59.281116, 4.746269)" sketch:type="MSShapeGroup">
                    <path d="M29.3362725,3.64917164 C28.2198498,4.11944776 27.102985,4.41312687 25.9870043,4.53107463 C27.2475386,3.79049254 28.1000515,2.74432836 28.5443219,1.39258209 C27.3914292,2.06239552 26.1609549,2.52076866 24.8524571,2.76770149 C23.6997854,1.56874627 22.2834249,0.969052239 20.6024914,0.969052239 C18.9938348,0.969052239 17.6223433,1.5243806 16.4875751,2.63525373 C15.3530279,3.74612687 14.7858648,5.089 14.7858648,6.66408955 C14.7858648,7.08718657 14.8338283,7.52218657 14.9299764,7.96887313 C12.5527983,7.85135821 10.3228262,7.26659701 8.23983906,6.21458955 C6.15685193,5.16236567 4.38905365,3.76062687 2.93644421,2.00915672 C2.4081824,2.89062687 2.1440515,3.84870896 2.1440515,4.88318657 C2.1440515,5.85879851 2.37812232,6.76407463 2.84648498,7.59858209 C3.31462661,8.43308955 3.94500429,9.10896269 4.737397,9.62620149 C3.8008927,9.59092537 2.92450858,9.34983582 2.10824464,8.90314925 L2.10824464,8.97370149 C2.10824464,10.3490373 2.5494206,11.5566493 3.43177253,12.5971866 C4.31412446,13.6377239 5.42767382,14.2928209 6.77219957,14.5631269 C6.26803004,14.6923284 5.75767167,14.7570373 5.24156652,14.7570373 C4.90537983,14.7570373 4.53913305,14.7276045 4.14304721,14.6691716 C4.5152618,15.8092612 5.19957082,16.7465672 6.19597425,17.481306 C7.19237768,18.2162612 8.32095708,18.5949925 9.58149142,18.6187985 C7.46866524,20.2406343 5.06164807,21.0517687 2.36043991,21.0517687 C1.84411373,21.0517687 1.3759721,21.0286119 0.955793991,20.9814328 C3.65700215,22.6857239 6.63427682,23.5377612 9.88783906,23.5377612 C11.9527017,23.5377612 13.8915773,23.2176791 15.7040236,22.5770821 C17.517133,21.9364851 19.0656695,21.0783881 20.3502961,20.0025746 C21.6347017,18.927194 22.7422833,17.6899328 23.6725987,16.2910075 C24.6029142,14.8922985 25.2960644,13.4319104 25.7524914,11.9096269 C26.2086974,10.3871269 26.4368004,8.86224627 26.4368004,7.33390299 C26.4368004,7.00473134 26.4308326,6.75801493 26.418676,6.5933209 C27.559412,5.7826194 28.5319442,4.80094776 29.3362725,3.64917164 L29.3362725,3.64917164 Z" id="Shape"></path>
                </g>
                <g id="facebook25" transform="translate(0.000000, 0.500000)" sketch:type="MSShapeGroup">
                    <path d="M10.1391502,10.492306 L10.1391502,7.98856716 C10.1391502,7.61264925 10.1568326,7.32156716 10.1928605,7.11597015 C10.2286674,6.9099403 10.3100064,6.70737313 10.4362146,6.50740299 C10.5622017,6.30764925 10.7664335,6.16957463 11.0484678,6.0931791 C11.3307232,6.01656716 11.7060322,5.97847761 12.1743948,5.97847761 L14.7312704,5.97847761 L14.7312704,0.971 L10.6435408,0.971 C8.27807725,0.971 6.57946137,1.52048507 5.54703004,2.61945522 C4.51459871,3.71864179 3.99849356,5.33766418 3.99849356,7.47717164 L3.99849356,10.492306 L0.936785408,10.492306 L0.936785408,15.5 L3.99827253,15.5 L3.99827253,30.029 L10.1391502,30.029 L10.1391502,15.5 L14.2268798,15.5 L14.7670773,10.492306 L10.1391502,10.492306 L10.1391502,10.492306 Z" id="Shape"></path>
                </g>
            </g>
        </g>
    </g>
</svg>